<svg width="18.842773" height="18.817810" viewBox="0 0 18.8428 18.8178" fill="none" xmlns="http://www.w3.org/2000/svg" xmlns:xlink="http://www.w3.org/1999/xlink">
	<desc>
			Created with Pixso.
	</desc>
	<defs/>
	<path id="Path 36238" d="M14.13 6.58L4.73 6.58C4.21 6.58 3.79 7 3.79 7.52C3.79 8.04 4.21 8.46 4.73 8.46L14.13 8.46C14.65 8.46 15.07 8.04 15.07 7.52C15.07 7 14.65 6.58 14.13 6.58ZM10.37 10.34L4.73 10.34C4.21 10.34 3.79 10.77 3.79 11.29C3.79 11.8 4.21 12.23 4.73 12.23L10.37 12.23C10.89 12.23 11.31 11.8 11.31 11.29C11.31 10.77 10.89 10.34 10.37 10.34ZM9.43 0C4.23 0 0.02 4.21 0.02 9.4C0.01 11.58 0.77 13.68 2.15 15.36L0.27 17.24C0 17.51 -0.08 17.92 0.07 18.27C0.23 18.61 0.58 18.83 0.96 18.81L9.43 18.81C14.63 18.81 18.84 14.6 18.84 9.4C18.84 4.21 14.63 0 9.43 0ZM9.43 16.93L3.23 16.93L4.1 16.06C4.47 15.69 4.47 15.1 4.1 14.73C1.56 12.19 1.17 8.21 3.16 5.23C5.16 2.24 8.98 1.08 12.3 2.45C15.62 3.82 17.5 7.34 16.81 10.87C16.11 14.39 13.02 16.93 9.43 16.93Z" fill="#494C57" fill-opacity="1.000000" fill-rule="nonzero"/>
	<path id="Path 36238" d="M4.73 6.58C4.21 6.58 3.79 7 3.79 7.52C3.79 8.04 4.21 8.46 4.73 8.46L14.13 8.46C14.65 8.46 15.07 8.04 15.07 7.52C15.07 7 14.65 6.58 14.13 6.58L4.73 6.58ZM4.73 10.34C4.21 10.34 3.79 10.77 3.79 11.29C3.79 11.8 4.21 12.23 4.73 12.23L10.37 12.23C10.89 12.23 11.31 11.8 11.31 11.29C11.31 10.77 10.89 10.34 10.37 10.34L4.73 10.34ZM0.02 9.4C0.01 11.58 0.77 13.68 2.15 15.36L0.27 17.24C0 17.51 -0.08 17.92 0.07 18.27C0.23 18.61 0.58 18.83 0.96 18.81L9.43 18.81C14.63 18.81 18.84 14.6 18.84 9.4C18.84 4.21 14.63 0 9.43 0C4.23 0 0.02 4.21 0.02 9.4ZM3.23 16.93L4.1 16.06C4.47 15.69 4.47 15.1 4.1 14.73C1.56 12.19 1.17 8.21 3.16 5.23C5.16 2.24 8.98 1.08 12.3 2.45C15.62 3.82 17.5 7.34 16.81 10.87C16.11 14.39 13.02 16.93 9.43 16.93L3.23 16.93Z" stroke="#707070" stroke-opacity="0" stroke-width="1.000000"/>
</svg>
