<svg width="12.000000" height="12.000000" viewBox="0 0 12 12" fill="none" xmlns="http://www.w3.org/2000/svg" xmlns:xlink="http://www.w3.org/1999/xlink">
	<desc>
			Created with Pixso.
	</desc>
	<defs/>
	<path id="Path 34345" d="M6 0C2.68 0 0 2.68 0 6C0 9.31 2.68 12 6 12C9.31 12 12 9.31 12 6C12 2.68 9.31 0 6 0ZM8.82 4.62L5.82 7.62C5.71 7.73 5.56 7.8 5.39 7.8C5.24 7.8 5.08 7.73 4.97 7.62L3.77 6.42C3.53 6.19 3.53 5.8 3.77 5.57C4 5.33 4.39 5.33 4.62 5.57L5.39 6.35L7.97 3.77C8.2 3.53 8.59 3.53 8.82 3.77C9.06 4 9.06 4.39 8.82 4.62Z" fill="#FFFFFF" fill-opacity="1.000000" fill-rule="nonzero"/>
	<path id="Path 34345" d="M0 6C0 9.31 2.68 12 6 12C9.31 12 12 9.31 12 6C12 2.68 9.31 0 6 0C2.68 0 0 2.68 0 6ZM5.82 7.62C5.71 7.73 5.56 7.8 5.39 7.8C5.24 7.8 5.08 7.73 4.97 7.62L3.77 6.42C3.53 6.19 3.53 5.8 3.77 5.57C4 5.33 4.39 5.33 4.62 5.57L5.39 6.35L7.97 3.77C8.2 3.53 8.59 3.53 8.82 3.77C9.06 4 9.06 4.39 8.82 4.62L5.82 7.62Z" stroke="#707070" stroke-opacity="0" stroke-width="1.000000"/>
</svg>
