<svg width="16.617188" height="20.309906" viewBox="0 0 16.6172 20.3099" fill="none" xmlns="http://www.w3.org/2000/svg" xmlns:xlink="http://www.w3.org/1999/xlink">
	<desc>
			Created with Pixso.
	</desc>
	<defs/>
	<path id="Path 36285" d="M14.77 1.84L10.9 1.84C10.52 0.77 9.51 0 8.3 0C7.1 0 6.08 0.77 5.7 1.84L1.84 1.84C0.82 1.84 0 2.67 0 3.69L0 18.46C0 19.48 0.82 20.3 1.84 20.3L14.77 20.3C15.79 20.3 16.61 19.48 16.61 18.46L16.61 3.69C16.61 2.67 15.79 1.84 14.77 1.84ZM8.3 1.84C8.81 1.84 9.23 2.25 9.23 2.76C9.23 3.28 8.81 3.69 8.3 3.69C7.8 3.69 7.38 3.28 7.38 2.76C7.38 2.25 7.8 1.84 8.3 1.84ZM14.77 18.46L1.84 18.46L1.84 3.69L3.69 3.69L3.69 6.46L12.92 6.46L12.92 3.69L14.77 3.69L14.77 18.46Z" fill="#31A6FF" fill-opacity="1.000000" fill-rule="nonzero"/>
	<path id="Path 36285" d="M10.9 1.84C10.52 0.77 9.51 0 8.3 0C7.1 0 6.08 0.77 5.7 1.84L1.84 1.84C0.82 1.84 0 2.67 0 3.69L0 18.46C0 19.48 0.82 20.3 1.84 20.3L14.77 20.3C15.79 20.3 16.61 19.48 16.61 18.46L16.61 3.69C16.61 2.67 15.79 1.84 14.77 1.84L10.9 1.84ZM9.23 2.76C9.23 3.28 8.81 3.69 8.3 3.69C7.8 3.69 7.38 3.28 7.38 2.76C7.38 2.25 7.8 1.84 8.3 1.84C8.81 1.84 9.23 2.25 9.23 2.76ZM1.84 18.46L1.84 3.69L3.69 3.69L3.69 6.46L12.92 6.46L12.92 3.69L14.77 3.69L14.77 18.46L1.84 18.46Z" stroke="#707070" stroke-opacity="0" stroke-width="1.000000"/>
</svg>
