<svg width="22.724609" height="22.000000" viewBox="0 0 22.7246 22" fill="none" xmlns="http://www.w3.org/2000/svg" xmlns:xlink="http://www.w3.org/1999/xlink">
	<desc>
			Created with Pixso.
	</desc>
	<defs/>
	<rect id="Rectangle 18700" x="0.362305" width="22.000000" height="22.000000" fill="#000000" fill-opacity="0"/>
	<rect id="Rectangle 18700" x="0.362305" width="22.000000" height="22.000000" stroke="#707070" stroke-opacity="0" stroke-width="1.000000"/>
	<path id="Path 36282" d="M15.62 15.26L15.62 18.1L22.72 11L15.62 3.89L15.62 6.73L19.88 11L15.62 15.26Z" fill="#31A6FF" fill-opacity="1.000000" fill-rule="nonzero"/>
	<path id="Path 36282" d="M15.62 18.1L22.72 11L15.62 3.89L15.62 6.73L19.88 11L15.62 15.26L15.62 18.1Z" stroke="#707070" stroke-opacity="0" stroke-width="1.000000"/>
	<path id="Path 36283" d="M7.1 15.26L7.1 18.1L0 11L7.1 3.89L7.1 6.73L2.84 11L7.1 15.26Z" fill="#31A6FF" fill-opacity="1.000000" fill-rule="nonzero"/>
	<path id="Path 36283" d="M7.1 18.1L0 11L7.1 3.89L7.1 6.73L2.84 11L7.1 15.26L7.1 18.1Z" stroke="#707070" stroke-opacity="0" stroke-width="1.000000"/>
	<path id="Path 36284" d="M7.1 13.84L9.94 13.84L15.62 8.15L12.78 8.15L7.1 13.84Z" fill="#31A6FF" fill-opacity="1.000000" fill-rule="nonzero"/>
	<path id="Path 36284" d="M9.94 13.84L15.62 8.15L12.78 8.15L7.1 13.84L9.94 13.84Z" stroke="#707070" stroke-opacity="0" stroke-width="1.000000"/>
</svg>
