<svg width="15.186035" height="15.186218" viewBox="0 0 15.186 15.1862" fill="none" xmlns="http://www.w3.org/2000/svg" xmlns:xlink="http://www.w3.org/1999/xlink">
	<desc>
			Created with Pixso.
	</desc>
	<defs/>
	<path id="path3263" d="M7.59 15.18C3.4 15.18 0 11.78 0 7.59C0 3.4 3.4 0 7.59 0C11.77 0 15.18 3.4 15.18 7.59C15.18 11.78 11.77 15.18 7.59 15.18ZM7.59 1.74C4.36 1.74 1.74 4.36 1.74 7.59C1.74 10.81 4.36 13.44 7.59 13.44C10.81 13.44 13.44 10.81 13.44 7.59C13.44 4.36 10.81 1.74 7.59 1.74Z" fill="#000000" fill-opacity="1.000000" fill-rule="nonzero"/>
	<path id="path3263" d="M0 7.59C0 3.4 3.4 0 7.59 0C11.77 0 15.18 3.4 15.18 7.59C15.18 11.78 11.77 15.18 7.59 15.18C3.4 15.18 0 11.78 0 7.59ZM1.74 7.59C1.74 10.81 4.36 13.44 7.59 13.44C10.81 13.44 13.44 10.81 13.44 7.59C13.44 4.36 10.81 1.74 7.59 1.74C4.36 1.74 1.74 4.36 1.74 7.59Z" stroke="#000000" stroke-opacity="0" stroke-width="50.715900"/>
	<path id="path3265" d="" fill="#000000" fill-opacity="1.000000" fill-rule="nonzero"/>
	<path id="path3265" d="" stroke="#000000" stroke-opacity="0" stroke-width="50.715900"/>
	<path id="path3267" d="M6.69 2.38L6.69 3.5C6.24 3.5 4.21 4.08 4.21 5.93C4.21 7.57 5.68 8.02 6.69 8.17L6.69 10.02C5.95 9.81 5.82 9.24 5.71 8.77L4.08 8.77C4.18 10.62 5.81 11.48 6.69 11.61L6.69 12.75L8.25 12.75L8.25 11.63C9.48 11.56 10.93 10.5 10.93 9.04C10.93 7.38 9.48 6.91 8.25 6.78L8.25 5.08C8.73 5.11 9.11 5.59 9.15 6.08L10.77 6.08C10.77 4.43 9.27 3.56 8.23 3.5L8.23 2.38L6.69 2.38ZM6.7 5.09L6.7 6.5C5.61 6.49 5.59 5.29 6.7 5.09ZM8.27 8.43C9.62 8.47 9.77 9.82 8.26 10.03L8.27 8.43Z" fill="#000000" fill-opacity="1.000000" fill-rule="nonzero"/>
	<path id="path3267" d="M6.69 3.5C6.24 3.5 4.21 4.08 4.21 5.93C4.21 7.57 5.68 8.02 6.69 8.17L6.69 10.02C5.95 9.81 5.82 9.24 5.71 8.77L4.08 8.77C4.18 10.62 5.81 11.48 6.69 11.61L6.69 12.75L8.25 12.75L8.25 11.63C9.48 11.56 10.93 10.5 10.93 9.04C10.93 7.38 9.48 6.91 8.25 6.78L8.25 5.08C8.73 5.11 9.11 5.59 9.15 6.08L10.77 6.08C10.77 4.43 9.27 3.56 8.23 3.5L8.23 2.38L6.69 2.38L6.69 3.5ZM6.7 6.5C5.61 6.49 5.59 5.29 6.7 5.09L6.7 6.5ZM8.26 10.03L8.27 8.43C9.62 8.47 9.77 9.82 8.26 10.03Z" stroke="#707070" stroke-opacity="0" stroke-width="1.000000"/>
	<path id="path3277" d="" fill="#FFFFFF" fill-opacity="1.000000" fill-rule="nonzero"/>
	<path id="path3277" d="M8.26 10.03L8.27 8.43" stroke="#707070" stroke-opacity="0" stroke-width="1.000000"/>
</svg>
