<svg width="15.926270" height="17.601074" viewBox="0 0 15.9263 17.6011" fill="none" xmlns="http://www.w3.org/2000/svg" xmlns:xlink="http://www.w3.org/1999/xlink">
	<desc>
			Created with Pixso.
	</desc>
	<defs/>
	<path id="Path 34410" d="M10.18 10.92C9.6 10.96 9.05 11.06 8.5 11.3C8.29 11.39 8.08 11.51 7.86 11.58C6.96 11.9 5.8 11.92 4.9 11.53C4.74 11.46 4.59 11.37 4.43 11.29C3.71 10.92 2.87 10.8 2.1 11.08C1.96 11.13 1.64 11.23 1.64 11.37L1.64 17.3C1.64 17.56 1.53 17.59 1.28 17.6L0.51 17.6C-0.13 17.59 0.01 17.3 0.01 16.8L0.01 0.79C0.03 0.39 0.29 0.07 0.69 6.1e-5C1.51 -0.01 1.64 0.68 1.64 1.32L1.64 2.27C1.81 2.06 2.64 1.99 2.92 1.99C3.37 1.99 3.75 2.02 4.16 2.21C4.46 2.34 4.72 2.52 5.03 2.62C6 2.93 7.22 2.88 8.17 2.5C8.46 2.38 8.73 2.25 9.03 2.16C9.91 1.88 11.02 1.89 11.85 2.33C12.07 2.45 12.27 2.57 12.5 2.67C13.39 3.03 14.65 3.02 15.48 2.52C15.68 2.4 15.91 2.39 15.92 2.66L15.92 11.09C15.91 11.29 15.74 11.36 15.57 11.45C14.67 11.91 13.45 11.94 12.53 11.55C11.53 11.13 11.36 10.91 10.18 10.92Z" fill="#000000" fill-opacity="1.000000" fill-rule="nonzero"/>
	<path id="Path 34410" d="M8.5 11.3C8.29 11.39 8.08 11.51 7.86 11.58C6.96 11.9 5.8 11.92 4.9 11.53C4.74 11.46 4.59 11.37 4.43 11.29C3.71 10.92 2.87 10.8 2.1 11.08C1.96 11.13 1.64 11.23 1.64 11.37L1.64 17.3C1.64 17.56 1.53 17.59 1.28 17.6L0.51 17.6C-0.13 17.59 0.01 17.3 0.01 16.8L0.01 0.79C0.03 0.39 0.29 0.07 0.69 6.1e-5C1.51 -0.01 1.64 0.68 1.64 1.32L1.64 2.27C1.81 2.06 2.64 1.99 2.92 1.99C3.37 1.99 3.75 2.02 4.16 2.21C4.46 2.34 4.72 2.52 5.03 2.62C6 2.93 7.22 2.88 8.17 2.5C8.46 2.38 8.73 2.25 9.03 2.16C9.91 1.88 11.02 1.89 11.85 2.33C12.07 2.45 12.27 2.57 12.5 2.67C13.39 3.03 14.65 3.02 15.48 2.52C15.68 2.4 15.91 2.39 15.92 2.66L15.92 11.09C15.91 11.29 15.74 11.36 15.57 11.45C14.67 11.91 13.45 11.94 12.53 11.55C11.53 11.13 11.36 10.91 10.18 10.92C9.6 10.96 9.05 11.06 8.5 11.3Z" stroke="#707070" stroke-opacity="0" stroke-width="0.800000"/>
</svg>
