<svg width="14.176758" height="14.176636" viewBox="0 0 14.1768 14.1766" fill="none" xmlns="http://www.w3.org/2000/svg" xmlns:xlink="http://www.w3.org/1999/xlink">
	<desc>
			Created with Pixso.
	</desc>
	<defs/>
	<path id="Path 34414" d="M7.08 0C3.16 0 0 3.17 0 7.08C0 11 3.16 14.17 7.08 14.17C11 14.17 14.17 11 14.17 7.08C14.17 3.17 11 0 7.08 0ZM11.99 4.25L9.9 4.25C9.67 3.36 9.34 2.51 8.92 1.72C10.22 2.17 11.31 3.07 11.99 4.25ZM7.08 1.44C7.68 2.29 8.14 3.23 8.44 4.25L5.73 4.25C6.03 3.23 6.49 2.29 7.08 1.44ZM1.6 8.5C1.48 8.05 1.41 7.57 1.41 7.08C1.41 6.59 1.48 6.12 1.6 5.67L3.99 5.67C3.93 6.13 3.89 6.6 3.89 7.08C3.89 7.57 3.93 8.04 3.99 8.5L1.6 8.5ZM2.17 9.92L4.27 9.92C4.5 10.8 4.82 11.66 5.24 12.45C3.94 12 2.86 11.09 2.17 9.92ZM4.27 4.25L2.17 4.25C2.86 3.07 3.94 2.17 5.24 1.72C4.82 2.51 4.5 3.36 4.27 4.25ZM7.08 12.73C6.5 11.88 6.03 10.93 5.73 9.92L8.44 9.92C8.13 10.93 7.67 11.88 7.08 12.73ZM8.74 8.5L5.42 8.5C5.36 8.04 5.31 7.57 5.31 7.08C5.31 6.6 5.36 6.13 5.42 5.67L8.74 5.67C8.81 6.13 8.86 6.6 8.86 7.08C8.86 7.57 8.81 8.04 8.74 8.5ZM8.92 12.44C9.35 11.65 9.67 10.8 9.9 9.92L11.99 9.92C11.31 11.09 10.22 12 8.92 12.44ZM10.17 8.5C10.23 8.04 10.27 7.57 10.27 7.08C10.27 6.6 10.23 6.13 10.17 5.67L12.57 5.67C12.68 6.12 12.75 6.59 12.75 7.08C12.75 7.57 12.69 8.05 12.57 8.5L10.17 8.5Z" fill="#000000" fill-opacity="1.000000" fill-rule="nonzero"/>
	<path id="Path 34414" d="M0 7.08C0 11 3.16 14.17 7.08 14.17C11 14.17 14.17 11 14.17 7.08C14.17 3.17 11 0 7.08 0C3.16 0 0 3.17 0 7.08ZM9.9 4.25C9.67 3.36 9.34 2.51 8.92 1.72C10.22 2.17 11.31 3.07 11.99 4.25L9.9 4.25ZM8.44 4.25L5.73 4.25C6.03 3.23 6.49 2.29 7.08 1.44C7.68 2.29 8.14 3.23 8.44 4.25ZM1.41 7.08C1.41 6.59 1.48 6.12 1.6 5.67L3.99 5.67C3.93 6.13 3.89 6.6 3.89 7.08C3.89 7.57 3.93 8.04 3.99 8.5L1.6 8.5C1.48 8.05 1.41 7.57 1.41 7.08ZM4.27 9.92C4.5 10.8 4.82 11.66 5.24 12.45C3.94 12 2.86 11.09 2.17 9.92L4.27 9.92ZM2.17 4.25C2.86 3.07 3.94 2.17 5.24 1.72C4.82 2.51 4.5 3.36 4.27 4.25L2.17 4.25ZM5.73 9.92L8.44 9.92C8.13 10.93 7.67 11.88 7.08 12.73C6.5 11.88 6.03 10.93 5.73 9.92ZM5.42 8.5C5.36 8.04 5.31 7.57 5.31 7.08C5.31 6.6 5.36 6.13 5.42 5.67L8.74 5.67C8.81 6.13 8.86 6.6 8.86 7.08C8.86 7.57 8.81 8.04 8.74 8.5L5.42 8.5ZM9.9 9.92L11.99 9.92C11.31 11.09 10.22 12 8.92 12.44C9.35 11.65 9.67 10.8 9.9 9.92ZM10.27 7.08C10.27 6.6 10.23 6.13 10.17 5.67L12.57 5.67C12.68 6.12 12.75 6.59 12.75 7.08C12.75 7.57 12.69 8.05 12.57 8.5L10.17 8.5C10.23 8.04 10.27 7.57 10.27 7.08Z" stroke="#707070" stroke-opacity="0" stroke-width="1.000000"/>
</svg>
