<svg width="19.180176" height="14.424255" viewBox="0 0 19.1802 14.4243" fill="none" xmlns="http://www.w3.org/2000/svg" xmlns:xlink="http://www.w3.org/1999/xlink">
	<desc>
			Created with Pixso.
	</desc>
	<defs/>
	<rect id="Rectangle 18012" x="2.397461" width="14.384954" height="14.424239" fill="#F1F5F7" fill-opacity="1.000000"/>
	<rect id="Rectangle 18012" x="2.397461" width="14.384954" height="14.424239" stroke="#707070" stroke-opacity="0" stroke-width="1.000000"/>
	<path id="Path 34752" d="M9.59 8.72L16.78 14.42L16.78 3.18L9.59 8.72Z" fill="#DCE6EA" fill-opacity="1.000000" fill-rule="nonzero"/>
	<path id="Path 34752" d="M16.78 14.42L16.78 3.18L9.59 8.72L16.78 14.42Z" stroke="#707070" stroke-opacity="0" stroke-width="1.000000"/>
	<path id="Path 34753" d="M17.38 0L16.78 0L9.58 5.69L2.39 0L1.79 0C0.8 0 0 0.8 0 1.8L0 12.62C0 13.61 0.8 14.42 1.79 14.42L2.39 14.42L2.39 3.18L9.58 8.72L16.78 3.17L16.78 14.42L17.38 14.42C18.37 14.42 19.18 13.61 19.18 12.62L19.18 1.8C19.18 0.8 18.37 0 17.38 0Z" fill="#F84437" fill-opacity="1.000000" fill-rule="nonzero"/>
	<path id="Path 34753" d="M16.78 0L9.58 5.69L2.39 0L1.79 0C0.8 0 0 0.8 0 1.8L0 12.62C0 13.61 0.8 14.42 1.79 14.42L2.39 14.42L2.39 3.18L9.58 8.72L16.78 3.17L16.78 14.42L17.38 14.42C18.37 14.42 19.18 13.61 19.18 12.62L19.18 1.8C19.18 0.8 18.37 0 17.38 0L16.78 0Z" stroke="#707070" stroke-opacity="0" stroke-width="1.000000"/>
</svg>
