<svg width="22.011719" height="20.008423" viewBox="0 0 22.0117 20.0084" fill="none" xmlns="http://www.w3.org/2000/svg" xmlns:xlink="http://www.w3.org/1999/xlink">
	<desc>
			Created with Pixso.
	</desc>
	<defs/>
	<path id="Path 36280" d="M19 14C18.37 14.01 17.77 14.2 17.27 14.56L14.81 13.11C14.93 12.75 14.99 12.38 15 12C14.99 10.18 13.76 8.6 12 8.14L12 5.82C13.37 5.34 14.2 3.93 13.95 2.49C13.71 1.05 12.46 0 11 0C9.53 0 8.29 1.05 8.04 2.49C7.79 3.93 8.62 5.34 10 5.82L10 8.14C8.23 8.6 7 10.18 7 12C7 12.38 7.06 12.75 7.18 13.11L4.72 14.56C4.22 14.2 3.62 14.01 3 14C1.34 14 0 15.35 0 17C0 18.66 1.34 20 3 20C4.65 20 6 18.66 6 17C5.99 16.73 5.95 16.46 5.87 16.2L8.18 14.83C9.74 16.38 12.25 16.38 13.81 14.83L16.12 16.2C15.77 17.45 16.26 18.77 17.33 19.49C18.39 20.21 19.8 20.17 20.83 19.39C21.85 18.61 22.26 17.26 21.85 16.04C21.43 14.82 20.28 14 19 14ZM3 18C2.44 18 2 17.56 2 17C2 16.45 2.44 16 3 16C3.55 16 4 16.45 4 17C4 17.56 3.55 18 3 18ZM11 2C11.55 2 12 2.45 12 3C12 3.56 11.55 4 11 4C10.44 4 10 3.56 10 3C10 2.45 10.44 2 11 2ZM11 14C9.89 14 9 13.11 9 12C9 10.9 9.89 10 11 10C12.1 10 13 10.9 13 12C13 13.11 12.1 14 11 14ZM19 18C18.44 18 18 17.56 18 17C18 16.45 18.44 16 19 16C19.55 16 20 16.45 20 17C20 17.56 19.55 18 19 18Z" fill="#6563FF" fill-opacity="1.000000" fill-rule="nonzero"/>
	<path id="Path 36280" d="M17.27 14.56L14.81 13.11C14.93 12.75 14.99 12.38 15 12C14.99 10.18 13.76 8.6 12 8.14L12 5.82C13.37 5.34 14.2 3.93 13.95 2.49C13.71 1.05 12.46 0 11 0C9.53 0 8.29 1.05 8.04 2.49C7.79 3.93 8.62 5.34 10 5.82L10 8.14C8.23 8.6 7 10.18 7 12C7 12.38 7.06 12.75 7.18 13.11L4.72 14.56C4.22 14.2 3.62 14.01 3 14C1.34 14 0 15.35 0 17C0 18.66 1.34 20 3 20C4.65 20 6 18.66 6 17C5.99 16.73 5.95 16.46 5.87 16.2L8.18 14.83C9.74 16.38 12.25 16.38 13.81 14.83L16.12 16.2C15.77 17.45 16.26 18.77 17.33 19.49C18.39 20.21 19.8 20.17 20.83 19.39C21.85 18.61 22.26 17.26 21.85 16.04C21.43 14.82 20.28 14 19 14C18.37 14.01 17.77 14.2 17.27 14.56ZM2 17C2 16.45 2.44 16 3 16C3.55 16 4 16.45 4 17C4 17.56 3.55 18 3 18C2.44 18 2 17.56 2 17ZM12 3C12 3.56 11.55 4 11 4C10.44 4 10 3.56 10 3C10 2.45 10.44 2 11 2C11.55 2 12 2.45 12 3ZM9 12C9 10.9 9.89 10 11 10C12.1 10 13 10.9 13 12C13 13.11 12.1 14 11 14C9.89 14 9 13.11 9 12ZM18 17C18 16.45 18.44 16 19 16C19.55 16 20 16.45 20 17C20 17.56 19.55 18 19 18C18.44 18 18 17.56 18 17Z" stroke="#707070" stroke-opacity="0" stroke-width="1.000000"/>
</svg>
