<svg width="14.269043" height="15.020386" viewBox="0 0 14.269 15.0204" fill="none" xmlns="http://www.w3.org/2000/svg" xmlns:xlink="http://www.w3.org/1999/xlink">
	<desc>
			Created with Pixso.
	</desc>
	<defs/>
	<path id="Path 34415" d="M12.76 0L5.25 0C4.42 0 3.75 0.67 3.75 1.5L3.75 5.69L0.21 9.23C0 9.44 -0.06 9.77 0.05 10.05C0.17 10.33 0.44 10.51 0.75 10.51L0.75 14.26C0.75 14.68 1.08 15.02 1.5 15.02L13.51 15.02C13.93 15.02 14.26 14.68 14.26 14.26L14.26 1.5C14.26 0.67 13.59 0 12.76 0ZM6.75 13.51L2.25 13.51L2.25 9.32L4.5 7.07L6.75 9.32L6.75 13.51ZM12.76 13.51L8.26 13.51L8.26 10.51C8.56 10.51 8.83 10.33 8.95 10.05C9.07 9.77 9 9.44 8.79 9.23L5.25 5.69L5.25 1.5L12.76 1.5L12.76 13.51Z" fill="#000000" fill-opacity="1.000000" fill-rule="nonzero"/>
	<path id="Path 34415" d="M5.25 0C4.42 0 3.75 0.67 3.75 1.5L3.75 5.69L0.21 9.23C0 9.44 -0.06 9.77 0.05 10.05C0.17 10.33 0.44 10.51 0.75 10.51L0.75 14.26C0.75 14.68 1.08 15.02 1.5 15.02L13.51 15.02C13.93 15.02 14.26 14.68 14.26 14.26L14.26 1.5C14.26 0.67 13.59 0 12.76 0L5.25 0ZM2.25 13.51L2.25 9.32L4.5 7.07L6.75 9.32L6.75 13.51L2.25 13.51ZM8.26 13.51L8.26 10.51C8.56 10.51 8.83 10.33 8.95 10.05C9.07 9.77 9 9.44 8.79 9.23L5.25 5.69L5.25 1.5L12.76 1.5L12.76 13.51L8.26 13.51Z" stroke="#707070" stroke-opacity="0" stroke-width="1.000000"/>
	<path id="Path 34416" d="M6.75 3L8.26 3L8.26 4.5L6.75 4.5L6.75 3ZM9.76 3L11.26 3L11.26 4.5L9.76 4.5L9.76 3ZM9.76 6.03L11.26 6.03L11.26 7.51L9.76 7.51L9.76 6.03ZM9.76 9.01L11.26 9.01L11.26 10.51L9.76 10.51L9.76 9.01ZM3.75 9.76L5.25 9.76L5.25 11.26L3.75 11.26L3.75 9.76Z" fill="#000000" fill-opacity="1.000000" fill-rule="nonzero"/>
	<path id="Path 34416" d="M8.26 3L8.26 4.5L6.75 4.5L6.75 3L8.26 3ZM11.26 3L11.26 4.5L9.76 4.5L9.76 3L11.26 3ZM11.26 6.03L11.26 7.51L9.76 7.51L9.76 6.03L11.26 6.03ZM11.26 9.01L11.26 10.51L9.76 10.51L9.76 9.01L11.26 9.01ZM5.25 9.76L5.25 11.26L3.75 11.26L3.75 9.76L5.25 9.76Z" stroke="#707070" stroke-opacity="0" stroke-width="1.000000"/>
</svg>
