<svg width="19.189453" height="19.189606" viewBox="0 0 19.1895 19.1896" fill="none" xmlns="http://www.w3.org/2000/svg" xmlns:xlink="http://www.w3.org/1999/xlink">
	<desc>
			Created with Pixso.
	</desc>
	<defs/>
	<path id="Path 36281" d="M6.26 9.49C5.96 8.76 5.81 7.97 5.81 7.18C5.81 3.77 8.58 1 12 1C15.41 1 18.18 3.77 18.18 7.18C18.18 10.6 15.41 13.37 12 13.37C11.21 13.37 10.42 13.22 9.69 12.92L8.56 14.06L6.5 14.06L6.5 16.12L4.43 16.12L4.43 18.18L1 18.18L1 14.75L6.26 9.49Z" fill="#000000" fill-opacity="0" fill-rule="nonzero"/>
	<path id="Path 36281" d="M5.81 7.18C5.81 3.77 8.58 1 12 1C15.41 1 18.18 3.77 18.18 7.18C18.18 10.6 15.41 13.37 12 13.37C11.21 13.37 10.42 13.22 9.69 12.92L8.56 14.06L6.5 14.06L6.5 16.12L4.43 16.12L4.43 18.18L1 18.18L1 14.75L6.26 9.49C5.96 8.76 5.81 7.97 5.81 7.18Z" stroke="#31A6FF" stroke-opacity="1.000000" stroke-width="2.000000" stroke-linejoin="round"/>
</svg>
