<svg width="20.830078" height="14.950073" viewBox="0 0 20.8301 14.9501" fill="none" xmlns="http://www.w3.org/2000/svg" xmlns:xlink="http://www.w3.org/1999/xlink">
	<desc>
			Created with Pixso.
	</desc>
	<defs/>
	<path id="Path 36278" d="M4.92 14.95C2.93 14.95 1.13 13.75 0.37 11.9C-0.39 10.06 0.03 7.94 1.44 6.53L4.78 3.19C6.7 1.27 9.82 1.27 11.75 3.19C13.67 5.12 13.67 8.24 11.75 10.17L8.41 13.51C7.49 14.43 6.23 14.95 4.92 14.95ZM8.26 3.3C7.37 3.3 6.5 3.65 5.87 4.29L2.53 7.63C1.21 8.95 1.21 11.09 2.53 12.41C3.85 13.73 5.99 13.73 7.32 12.41L10.65 9.07C11.62 8.1 11.91 6.65 11.39 5.39C10.86 4.12 9.63 3.3 8.26 3.3Z" fill="#01C49B" fill-opacity="1.000000" fill-rule="nonzero"/>
	<path id="Path 36278" d="M0.37 11.9C-0.39 10.06 0.03 7.94 1.44 6.53L4.78 3.19C6.7 1.27 9.82 1.27 11.75 3.19C13.67 5.12 13.67 8.24 11.75 10.17L8.41 13.51C7.49 14.43 6.23 14.95 4.92 14.95C2.93 14.95 1.13 13.75 0.37 11.9ZM5.87 4.29L2.53 7.63C1.21 8.95 1.21 11.09 2.53 12.41C3.85 13.73 5.99 13.73 7.32 12.41L10.65 9.07C11.62 8.1 11.91 6.65 11.39 5.39C10.86 4.12 9.63 3.3 8.26 3.3C7.37 3.3 6.5 3.65 5.87 4.29Z" stroke="#707070" stroke-opacity="0" stroke-width="1.000000"/>
	<path id="Path 36279" d="M12.47 13.28C12.05 13.28 11.63 13.23 11.23 13.12C10.83 13 10.6 12.58 10.7 12.18C10.81 11.78 11.21 11.53 11.62 11.62C12.78 11.93 14.01 11.59 14.86 10.74L18.2 7.4C19.52 6.08 19.52 3.94 18.2 2.62C16.88 1.3 14.74 1.3 13.42 2.62L10.08 5.96C9.23 6.81 8.9 8.04 9.2 9.2C9.28 9.61 9.04 10.01 8.64 10.11C8.24 10.22 7.83 9.99 7.7 9.59C7.27 7.9 7.75 6.1 8.99 4.86L12.33 1.52C13.56 0.23 15.4 -0.3 17.13 0.15C18.86 0.6 20.22 1.95 20.67 3.69C21.12 5.42 20.59 7.26 19.3 8.49L15.96 11.83C15.04 12.76 13.78 13.28 12.47 13.28Z" fill="#01C49B" fill-opacity="1.000000" fill-rule="nonzero"/>
	<path id="Path 36279" d="M11.23 13.12C10.83 13 10.6 12.58 10.7 12.18C10.81 11.78 11.21 11.53 11.62 11.62C12.78 11.93 14.01 11.59 14.86 10.74L18.2 7.4C19.52 6.08 19.52 3.94 18.2 2.62C16.88 1.3 14.74 1.3 13.42 2.62L10.08 5.96C9.23 6.81 8.9 8.04 9.2 9.2C9.28 9.61 9.04 10.01 8.64 10.11C8.24 10.22 7.83 9.99 7.7 9.59C7.27 7.9 7.75 6.1 8.99 4.86L12.33 1.52C13.56 0.23 15.4 -0.3 17.13 0.15C18.86 0.6 20.22 1.95 20.67 3.69C21.12 5.42 20.59 7.26 19.3 8.49L15.96 11.83C15.04 12.76 13.78 13.28 12.47 13.28C12.05 13.28 11.63 13.23 11.23 13.12Z" stroke="#707070" stroke-opacity="0" stroke-width="1.000000"/>
</svg>
