<svg width="12.786621" height="22.573486" viewBox="0 0 12.7866 22.5735" fill="none" xmlns="http://www.w3.org/2000/svg" xmlns:xlink="http://www.w3.org/1999/xlink">
	<desc>
			Created with Pixso.
	</desc>
	<defs/>
	<path id="Path 34419" d="M5.72 12.74L5.72 22.57L7.06 22.57L7.06 12.74C10.3 12.43 12.78 9.66 12.78 6.39C12.78 2.88 9.9 0 6.39 0C2.88 0 0 2.88 0 6.39C0 9.66 2.52 12.39 5.72 12.74Z" fill="#000000" fill-opacity="1.000000" fill-rule="nonzero"/>
	<path id="Path 34419" d="M5.72 22.57L7.06 22.57L7.06 12.74C10.3 12.43 12.78 9.66 12.78 6.39C12.78 2.88 9.9 0 6.39 0C2.88 0 0 2.88 0 6.39C0 9.66 2.52 12.39 5.72 12.74L5.72 22.57Z" stroke="#707070" stroke-opacity="0" stroke-width="1.000000"/>
</svg>
