<svg width="15.570312" height="12.917984" viewBox="0 0 15.5703 12.918" fill="none" xmlns="http://www.w3.org/2000/svg" xmlns:xlink="http://www.w3.org/1999/xlink">
	<desc>
			Created with Pixso.
	</desc>
	<defs/>
	<path id="path1597" d="M12.86 4.58C12.86 4.83 12.86 5.07 12.86 5.32C13.76 5.32 14.65 5.32 15.54 5.32C15.54 5.07 15.54 4.83 15.54 4.58C14.65 4.58 13.76 4.58 12.86 4.58Z" fill="#FFFFFF" fill-opacity="1.000000" fill-rule="nonzero"/>
	<path id="path1597" d="M12.86 5.32C13.76 5.32 14.65 5.32 15.54 5.32C15.54 5.07 15.54 4.83 15.54 4.58C14.65 4.58 13.76 4.58 12.86 4.58C12.86 4.83 12.86 5.07 12.86 5.32Z" stroke="#707070" stroke-opacity="0" stroke-width="1.000000"/>
	<path id="path1601" d="M13.17 6.3C13.06 6.52 12.95 6.74 12.84 6.95C13.64 7.36 14.43 7.76 15.23 8.17C15.34 7.95 15.45 7.73 15.56 7.51C14.77 7.11 13.97 6.7 13.17 6.3Z" fill="#FFFFFF" fill-opacity="1.000000" fill-rule="nonzero"/>
	<path id="path1601" d="M12.84 6.95C13.64 7.36 14.43 7.76 15.23 8.17C15.34 7.95 15.45 7.73 15.56 7.51C14.77 7.11 13.97 6.7 13.17 6.3C13.06 6.52 12.95 6.74 12.84 6.95Z" stroke="#707070" stroke-opacity="0" stroke-width="1.000000"/>
	<path id="path1605" d="M15.23 1.73C14.43 2.13 13.64 2.54 12.84 2.94C12.95 3.16 13.06 3.38 13.17 3.6C13.97 3.2 14.77 2.79 15.56 2.39C15.45 2.17 15.34 1.95 15.23 1.73Z" fill="#FFFFFF" fill-opacity="1.000000" fill-rule="nonzero"/>
	<path id="path1605" d="M12.84 2.94C12.95 3.16 13.06 3.38 13.17 3.6C13.97 3.2 14.77 2.79 15.56 2.39C15.45 2.17 15.34 1.95 15.23 1.73C14.43 2.13 13.64 2.54 12.84 2.94Z" stroke="#707070" stroke-opacity="0" stroke-width="1.000000"/>
	<path id="path1609" d="M9.08 1.39C6.9 2.09 4.72 2.8 2.54 3.5C2.5 3.5 2.47 3.48 2.42 3.48L0.81 3.48C0.37 3.48 0 3.85 0 4.29L0 7.17C0 7.62 0.37 7.99 0.81 7.99L1.07 7.99L2.83 12.91L5.42 12.91L3.86 8.24C5.6 8.6 7.34 8.96 9.08 9.32C9.08 10.1 9.74 10.74 10.54 10.74C11.34 10.74 12.01 10.12 12.01 9.34L12.01 1.4C12.01 0.62 11.34 0 10.54 0C9.75 0 9.09 0.61 9.08 1.39ZM10.54 0.73C10.97 0.73 11.27 1.03 11.27 1.4L11.27 9.34C11.27 9.71 10.97 10.01 10.54 10.01C10.12 10.01 9.81 9.71 9.81 9.34L9.81 1.4C9.81 1.03 10.12 0.73 10.54 0.73ZM9.08 2.16L9.08 8.57C7.13 8.17 5.19 7.76 3.25 7.36L3.25 4.05C5.19 3.42 7.13 2.79 9.08 2.16ZM0.81 4.21L2.42 4.21L2.5 5.37L0.73 5.37L0.81 4.21ZM0.73 6.1L2.5 6.1L2.5 7.17L0.81 7.25L0.73 6.1ZM2.54 7.96C2.7 8 2.86 8.03 3.02 8.06L4.4 12.18L3.35 12.18L1.85 7.99L2.42 7.99C2.46 7.99 2.5 7.97 2.54 7.96Z" fill="#FFFFFF" fill-opacity="1.000000" fill-rule="nonzero"/>
	<path id="path1609" d="M2.54 3.5C2.5 3.5 2.47 3.48 2.42 3.48L0.81 3.48C0.37 3.48 0 3.85 0 4.29L0 7.17C0 7.62 0.37 7.99 0.81 7.99L1.07 7.99L2.83 12.91L5.42 12.91L3.86 8.24C5.6 8.6 7.34 8.96 9.08 9.32C9.08 10.1 9.74 10.74 10.54 10.74C11.34 10.74 12.01 10.12 12.01 9.34L12.01 1.4C12.01 0.62 11.34 0 10.54 0C9.75 0 9.09 0.61 9.08 1.39C6.9 2.09 4.72 2.8 2.54 3.5ZM11.27 1.4L11.27 9.34C11.27 9.71 10.97 10.01 10.54 10.01C10.12 10.01 9.81 9.71 9.81 9.34L9.81 1.4C9.81 1.03 10.12 0.73 10.54 0.73C10.97 0.73 11.27 1.03 11.27 1.4ZM9.08 8.57C7.13 8.17 5.19 7.76 3.25 7.36L3.25 4.05C5.19 3.42 7.13 2.79 9.08 2.16L9.08 8.57ZM2.42 4.21L2.5 5.37L0.73 5.37L0.81 4.21L2.42 4.21ZM2.5 6.1L2.5 7.17L0.81 7.25L0.73 6.1L2.5 6.1ZM3.02 8.06L4.4 12.18L3.35 12.18L1.85 7.99L2.42 7.99C2.46 7.99 2.5 7.97 2.54 7.96C2.7 8 2.86 8.03 3.02 8.06Z" stroke="#707070" stroke-opacity="0" stroke-width="1.000000"/>
</svg>
