<svg width="13.742676" height="10.993958" viewBox="0 0 13.7427 10.994" fill="none" xmlns="http://www.w3.org/2000/svg" xmlns:xlink="http://www.w3.org/1999/xlink">
	<desc>
			Created with Pixso.
	</desc>
	<defs/>
	<path id="Path 34411" d="M7.34 5.53C7.08 5.77 6.68 5.77 6.42 5.53L0.59 0.24C0.82 0.08 1.09 6.1e-5 1.37 0L12.36 0C12.64 0 12.91 0.08 13.14 0.24L7.34 5.53Z" fill="#000000" fill-opacity="1.000000" fill-rule="nonzero"/>
	<path id="Path 34411" d="M6.42 5.53L0.59 0.24C0.82 0.08 1.09 6.1e-5 1.37 0L12.36 0C12.64 0 12.91 0.08 13.14 0.24L7.34 5.53C7.08 5.77 6.68 5.77 6.42 5.53Z" stroke="#707070" stroke-opacity="0" stroke-width="1.000000"/>
	<path id="Path 34412" d="M13.74 1.55L13.74 8.93C13.74 10.07 12.81 10.99 11.68 10.99L2.06 10.99C0.92 10.99 0 10.07 0 8.93L0 1.55L5.96 6.99C6.21 7.21 6.53 7.33 6.87 7.33C7.2 7.33 7.53 7.2 7.78 6.98L13.74 1.55Z" fill="#000000" fill-opacity="1.000000" fill-rule="nonzero"/>
	<path id="Path 34412" d="M13.74 8.93C13.74 10.07 12.81 10.99 11.68 10.99L2.06 10.99C0.92 10.99 0 10.07 0 8.93L0 1.55L5.96 6.99C6.21 7.21 6.53 7.33 6.87 7.33C7.2 7.33 7.53 7.2 7.78 6.98L13.74 1.55L13.74 8.93Z" stroke="#707070" stroke-opacity="0" stroke-width="1.000000"/>
</svg>
