<?xml version="1.0" encoding="UTF-8"?>
<svg fill="none" viewBox="0 0 13.743 10.994" xmlns="http://www.w3.org/2000/svg">
<desc>Mail Icon</desc>
<path id="a" d="m7.34 5.53c-0.26 0.24-0.66 0.24-0.92 0l-5.83-5.29c0.23-0.16 0.5-0.23994 0.78-0.24h10.99c0.28 0 0.55 0.08 0.78 0.24l-5.8 5.29z" fill="currentColor"/>
<path d="m6.42 5.53-5.83-5.29c0.23-0.16 0.5-0.23994 0.78-0.24h10.99c0.28 0 0.55 0.08 0.78 0.24l-5.8 5.29c-0.26 0.24-0.66 0.24-0.92 0z" stroke="#707070" stroke-opacity="0"/>
<path id="b" d="m13.74 1.55v7.38c0 1.14-0.93 2.06-2.06 2.06h-9.62c-1.14 0-2.06-0.92-2.06-2.06v-7.38l5.96 5.44c0.25 0.22 0.57 0.34 0.91 0.34 0.33 0 0.66-0.13 0.91-0.35l5.96-5.43z" fill="currentColor"/>
<path d="m13.74 8.93c0 1.14-0.93 2.06-2.06 2.06h-9.62c-1.14 0-2.06-0.92-2.06-2.06v-7.38l5.96 5.44c0.25 0.22 0.57 0.34 0.91 0.34 0.33 0 0.66-0.13 0.91-0.35l5.96-5.43v7.38z" stroke="#707070" stroke-opacity="0"/>
</svg>
