<svg width="14.084961" height="14.084595" viewBox="0 0 14.085 14.0846" fill="none" xmlns="http://www.w3.org/2000/svg" xmlns:xlink="http://www.w3.org/1999/xlink">
	<desc>
			Created with Pixso.
	</desc>
	<defs/>
	<path id="Path 34440" d="M9.63 3.38L7.52 1.28L7.52 6.55L12.79 6.55L10.69 4.45L14.08 1.06L13.02 0L9.63 3.38Z" fill="#3EBDFF" fill-opacity="1.000000" fill-rule="nonzero"/>
	<path id="Path 34440" d="M7.52 1.28L7.52 6.55L12.79 6.55L10.69 4.45L14.08 1.06L13.02 0L9.63 3.38L7.52 1.28Z" stroke="#707070" stroke-opacity="0" stroke-width="1.000000"/>
	<path id="Path 34441" d="M10.1 8.39C9.8 8.12 9.34 8.13 9.05 8.42L7.25 10.28C6.82 10.19 5.95 9.92 5.05 9.03C4.15 8.13 3.88 7.25 3.8 6.82L5.65 5.02C5.94 4.74 5.96 4.27 5.68 3.97L2.9 0.91C2.63 0.61 2.16 0.58 1.85 0.85L0.22 2.25C0.09 2.38 0.01 2.55 0 2.74C-0.01 2.93 -0.23 7.38 3.23 10.84C6.25 13.86 10.03 14.08 11.07 14.08C11.22 14.08 11.31 14.08 11.34 14.07C11.52 14.06 11.7 13.99 11.83 13.85L13.23 12.22C13.49 11.91 13.46 11.45 13.16 11.17L10.1 8.39Z" fill="#3EBDFF" fill-opacity="1.000000" fill-rule="nonzero"/>
	<path id="Path 34441" d="M9.05 8.42L7.25 10.28C6.82 10.19 5.95 9.92 5.05 9.03C4.15 8.13 3.88 7.25 3.8 6.82L5.65 5.02C5.94 4.74 5.96 4.27 5.68 3.97L2.9 0.91C2.63 0.61 2.16 0.58 1.85 0.85L0.22 2.25C0.09 2.38 0.01 2.55 0 2.74C-0.01 2.93 -0.23 7.38 3.23 10.84C6.25 13.86 10.03 14.08 11.07 14.08C11.22 14.08 11.31 14.08 11.34 14.07C11.52 14.06 11.7 13.99 11.83 13.85L13.23 12.22C13.49 11.91 13.46 11.45 13.16 11.17L10.1 8.39C9.8 8.12 9.34 8.13 9.05 8.42Z" stroke="#707070" stroke-opacity="0" stroke-width="1.000000"/>
</svg>
