<svg width="17.671387" height="17.672607" viewBox="0 0 17.6714 17.6726" fill="none" xmlns="http://www.w3.org/2000/svg" xmlns:xlink="http://www.w3.org/1999/xlink">
	<desc>
			Created with Pixso.
	</desc>
	<defs/>
	<path id="Path 34441" d="M13.31 10.17C12.91 9.81 12.3 9.83 11.93 10.21L9.56 12.65C8.99 12.55 7.84 12.19 6.65 11.01C5.47 9.82 5.11 8.67 5.01 8.11L7.45 5.73C7.83 5.36 7.85 4.75 7.49 4.35L3.82 0.32C3.46 -0.08 2.85 -0.12 2.44 0.23L0.29 2.08C0.12 2.25 0.02 2.48 0 2.72C-0.01 2.97 -0.3 8.85 4.26 13.4C8.23 17.38 13.21 17.67 14.58 17.67C14.78 17.67 14.91 17.66 14.94 17.66C15.18 17.65 15.41 17.54 15.58 17.37L17.43 15.22C17.78 14.81 17.74 14.2 17.34 13.84L13.31 10.17Z" fill="#3EBDFF" fill-opacity="1.000000" fill-rule="nonzero"/>
	<path id="Path 34441" d="M11.93 10.21L9.56 12.65C8.99 12.55 7.84 12.19 6.65 11.01C5.47 9.82 5.11 8.67 5.01 8.11L7.45 5.73C7.83 5.36 7.85 4.75 7.49 4.35L3.82 0.32C3.46 -0.08 2.85 -0.12 2.44 0.23L0.29 2.08C0.12 2.25 0.02 2.48 0 2.72C-0.01 2.97 -0.3 8.85 4.26 13.4C8.23 17.38 13.21 17.67 14.58 17.67C14.78 17.67 14.91 17.66 14.94 17.66C15.18 17.65 15.41 17.54 15.58 17.37L17.43 15.22C17.78 14.81 17.74 14.2 17.34 13.84L13.31 10.17C12.91 9.81 12.3 9.83 11.93 10.21Z" stroke="#707070" stroke-opacity="0" stroke-width="1.000000"/>
</svg>
