<svg width="16.042969" height="15.679565" viewBox="0 0 16.043 15.6796" fill="none" xmlns="http://www.w3.org/2000/svg" xmlns:xlink="http://www.w3.org/1999/xlink">
	<desc>
			Created with Pixso.
	</desc>
	<defs/>
	<path id="Path 34418" d="M8.02 0C12.45 0 16.04 3.59 16.04 8.02C16.04 11.55 13.76 14.54 10.59 15.62L10.41 15.67L8.08 9.62C8.94 9.58 9.62 8.86 9.62 8.02C9.62 7.13 8.9 6.41 8.02 6.41C7.13 6.41 6.41 7.13 6.41 8.02C6.41 8.88 7.09 9.58 7.95 9.62L5.62 15.67L5.44 15.62C2.27 14.54 0 11.55 0 8.02C0 3.59 3.59 0 8.02 0ZM8.02 1.6C4.47 1.6 1.6 4.47 1.6 8.02C1.6 10.36 2.85 12.41 4.73 13.53L5.92 10.44C5.24 9.85 4.81 8.98 4.81 8.02C4.81 6.24 6.24 4.81 8.02 4.81C9.79 4.81 11.23 6.24 11.23 8.02C11.23 8.98 10.8 9.85 10.12 10.44C10.57 11.62 10.97 12.65 11.3 13.53C13.18 12.41 14.43 10.36 14.43 8.02C14.43 4.47 11.56 1.6 8.02 1.6Z" fill="#000000" fill-opacity="1.000000" fill-rule="nonzero"/>
	<path id="Path 34418" d="M16.04 8.02C16.04 11.55 13.76 14.54 10.59 15.62L10.41 15.67L8.08 9.62C8.94 9.58 9.62 8.86 9.62 8.02C9.62 7.13 8.9 6.41 8.02 6.41C7.13 6.41 6.41 7.13 6.41 8.02C6.41 8.88 7.09 9.58 7.95 9.62L5.62 15.67L5.44 15.62C2.27 14.54 0 11.55 0 8.02C0 3.59 3.59 0 8.02 0C12.45 0 16.04 3.59 16.04 8.02ZM1.6 8.02C1.6 10.36 2.85 12.41 4.73 13.53L5.92 10.44C5.24 9.85 4.81 8.98 4.81 8.02C4.81 6.24 6.24 4.81 8.02 4.81C9.79 4.81 11.23 6.24 11.23 8.02C11.23 8.98 10.8 9.85 10.12 10.44C10.57 11.62 10.97 12.65 11.3 13.53C13.18 12.41 14.43 10.36 14.43 8.02C14.43 4.47 11.56 1.6 8.02 1.6C4.47 1.6 1.6 4.47 1.6 8.02Z" stroke="#707070" stroke-opacity="0" stroke-width="1.000000"/>
</svg>
