<svg width="10.827637" height="10.706360" viewBox="0 0 10.8276 10.7064" fill="none" xmlns="http://www.w3.org/2000/svg" xmlns:xlink="http://www.w3.org/1999/xlink">
	<desc>
			Created with Pixso.
	</desc>
	<defs/>
	<path id="send" d="M10.32 0L0.51 0.65C0.03 0.71 -0.2 1.39 0.19 1.72L2.9 4.32L8.21 2.01L3.83 6.2L4.41 10.22C4.5 10.75 5.08 10.89 5.34 10.39L10.74 0.83C10.96 0.49 10.72 -0.01 10.32 0Z" fill="#FFFFFF" fill-opacity="1.000000" fill-rule="nonzero"/>
	<path id="send" d="M0.51 0.65C0.03 0.71 -0.2 1.39 0.19 1.72L2.9 4.32L8.21 2.01L3.83 6.2L4.41 10.22C4.5 10.75 5.08 10.89 5.34 10.39L10.74 0.83C10.96 0.49 10.72 -0.01 10.32 0L0.51 0.65Z" stroke="#707070" stroke-opacity="0" stroke-width="1.000000"/>
</svg>
