<svg width="13.048828" height="9.689209" viewBox="0 0 13.0488 9.68921" fill="none" xmlns="http://www.w3.org/2000/svg" xmlns:xlink="http://www.w3.org/1999/xlink">
	<desc>
			Created with Pixso.
	</desc>
	<defs/>
	<path id="Path 34671" d="M9.97 6.74C9.81 6.83 9.75 7.04 9.83 7.2C10.12 7.79 10.3 8.42 10.34 9.08L0.62 9.08C0.73 7.47 1.63 6.02 3.01 5.2C3.41 6.12 4.3 6.71 5.29 6.74C6.35 6.7 7.29 6.01 7.64 5C7.93 5.15 8.2 5.32 8.46 5.52C8.52 5.57 8.59 5.59 8.67 5.6C8.77 5.59 8.87 5.54 8.94 5.46C8.99 5.39 9.02 5.3 9.01 5.21C8.99 5.12 8.95 5.04 8.88 4.99C8.58 4.75 8.26 4.55 7.93 4.39C8.08 3.6 7.95 2.79 7.73 2.02C7.53 1.34 7.09 0.75 6.49 0.38C6.11 0.19 5.7 0.1 5.28 0.11C4.5 0.13 3.77 0.47 3.25 1.06C2.74 1.65 2.49 2.43 2.57 3.21C2.57 3.66 2.64 4.1 2.77 4.53C1.08 5.54 -0.01 7.37 0 9.35C0 9.53 0.15 9.68 0.33 9.68L10.7 9.68C10.88 9.68 11.03 9.53 11.03 9.35C11.03 8.47 10.83 7.6 10.43 6.82C10.32 6.68 10.12 6.65 9.97 6.74ZM5.29 0.8C5.6 0.79 5.91 0.86 6.2 1C6.64 1.28 6.96 1.71 7.1 2.22C7.29 2.91 7.32 3.64 7.16 4.35C7 5.27 6.24 5.97 5.31 6.05C4.03 6.05 3.24 4.58 3.24 3.21C3.16 2.62 3.35 2.01 3.74 1.56C4.13 1.1 4.69 0.82 5.29 0.8Z" fill="#FFFFFF" fill-opacity="1.000000" fill-rule="nonzero"/>
	<path id="Path 34671" d="M9.83 7.2C10.12 7.79 10.3 8.42 10.34 9.08L0.62 9.08C0.73 7.47 1.63 6.02 3.01 5.2C3.41 6.12 4.3 6.71 5.29 6.74C6.35 6.7 7.29 6.01 7.64 5C7.93 5.15 8.2 5.32 8.46 5.52C8.52 5.57 8.59 5.59 8.67 5.6C8.77 5.59 8.87 5.54 8.94 5.46C8.99 5.39 9.02 5.3 9.01 5.21C8.99 5.12 8.95 5.04 8.88 4.99C8.58 4.75 8.26 4.55 7.93 4.39C8.08 3.6 7.95 2.79 7.73 2.02C7.53 1.34 7.09 0.75 6.49 0.38C6.11 0.19 5.7 0.1 5.28 0.11C4.5 0.13 3.77 0.47 3.25 1.06C2.74 1.65 2.49 2.43 2.57 3.21C2.57 3.66 2.64 4.1 2.77 4.53C1.08 5.54 -0.01 7.37 0 9.35C0 9.53 0.15 9.68 0.33 9.68L10.7 9.68C10.88 9.68 11.03 9.53 11.03 9.35C11.03 8.47 10.83 7.6 10.43 6.82C10.32 6.68 10.12 6.65 9.97 6.74C9.81 6.83 9.75 7.04 9.83 7.2ZM6.2 1C6.64 1.28 6.96 1.71 7.1 2.22C7.29 2.91 7.32 3.64 7.16 4.35C7 5.27 6.24 5.97 5.31 6.05C4.03 6.05 3.24 4.58 3.24 3.21C3.16 2.62 3.35 2.01 3.74 1.56C4.13 1.1 4.69 0.82 5.29 0.8C5.6 0.79 5.91 0.86 6.2 1Z" stroke="#707070" stroke-opacity="0" stroke-width="1.000000"/>
	<path id="Path 34672" d="M12.96 1.87L11.33 0.09C11.2 -0.04 10.99 -0.04 10.86 0.09L8.82 1.76C8.68 1.88 8.66 2.09 8.78 2.23C8.84 2.29 8.93 2.33 9.02 2.33C9.11 2.33 9.19 2.29 9.26 2.23L10.59 1.15C10.56 2.63 10.15 4.07 9.39 5.34C8.63 6.54 7.35 7.33 5.92 7.5C5.74 7.52 5.6 7.67 5.61 7.86C5.62 8.03 5.76 8.17 5.94 8.17C7.6 7.98 9.08 7.06 9.96 5.68C10.82 4.26 11.27 2.64 11.27 0.99L12.45 2.31C12.52 2.38 12.61 2.42 12.71 2.42C12.79 2.42 12.87 2.39 12.93 2.34C13.07 2.21 13.08 2 12.96 1.87Z" fill="#FFFFFF" fill-opacity="1.000000" fill-rule="nonzero"/>
	<path id="Path 34672" d="M11.33 0.09C11.2 -0.04 10.99 -0.04 10.86 0.09L8.82 1.76C8.68 1.88 8.66 2.09 8.78 2.23C8.84 2.29 8.93 2.33 9.02 2.33C9.11 2.33 9.19 2.29 9.26 2.23L10.59 1.15C10.56 2.63 10.15 4.07 9.39 5.34C8.63 6.54 7.35 7.33 5.92 7.5C5.74 7.52 5.6 7.67 5.61 7.86C5.62 8.03 5.76 8.17 5.94 8.17C7.6 7.98 9.08 7.06 9.96 5.68C10.82 4.26 11.27 2.64 11.27 0.99L12.45 2.31C12.52 2.38 12.61 2.42 12.71 2.42C12.79 2.42 12.87 2.39 12.93 2.34C13.07 2.21 13.08 2 12.96 1.87L11.33 0.09Z" stroke="#707070" stroke-opacity="0" stroke-width="1.000000"/>
</svg>
