<svg width="17.000488" height="17.136597" viewBox="0 0 17.0005 17.1366" fill="none" xmlns="http://www.w3.org/2000/svg" xmlns:xlink="http://www.w3.org/1999/xlink">
	<desc>
			Created with Pixso.
	</desc>
	<defs>
		<filter id="filter_1_696_dd" x="0.000000" y="0.000000" width="17.000488" height="17.136597" filterUnits="userSpaceOnUse" color-interpolation-filters="sRGB">
			<feFlood flood-opacity="0" result="BackgroundImageFix"/>
			<feColorMatrix in="SourceAlpha" type="matrix" values="0 0 0 0 0 0 0 0 0 0 0 0 0 0 0 0 0 0 127 0" result="hardAlpha"/>
			<feOffset dx="0" dy="1"/>
			<feGaussianBlur stdDeviation="0.333333"/>
			<feComposite in2="hardAlpha" operator="out" k2="-1" k3="1"/>
			<feColorMatrix type="matrix" values="0 0 0 0 0 0 0 0 0 0 0 0 0 0 0 0 0 0 0.3 0"/>
			<feBlend mode="normal" in2="BackgroundImageFix" result="effect_dropShadow_1"/>
			<feBlend mode="normal" in="SourceGraphic" in2="effect_dropShadow_1" result="shape"/>
		</filter>
	</defs>
	<g filter="url(#filter_1_696_dd)">
		<path id="Path 34" d="M2.56 11.71C2.57 11.15 2.34 10.73 1.84 10.47C1.22 10.14 0.99 9.36 1.33 8.75C1.58 8.3 1.59 7.85 1.32 7.41C1.24 7.27 1.13 7.15 1.08 6.99C0.88 6.46 1.06 5.85 1.52 5.53C1.91 5.26 2.11 4.9 2.11 4.42C2.11 4.34 2.1 4.26 2.08 4.18C1.95 3.48 2.41 2.82 3.11 2.7C3.68 2.6 4.04 2.28 4.19 1.72C4.36 1.05 5.08 0.64 5.74 0.84C6.16 0.97 6.55 0.92 6.9 0.67C7 0.6 7.07 0.52 7.15 0.44C7.58 -0.09 8.4 -0.16 8.91 0.3C9.12 0.48 9.35 0.62 9.62 0.66C9.87 0.7 10.11 0.67 10.34 0.57C11.01 0.27 11.75 0.55 12.04 1.23C12.16 1.51 12.33 1.74 12.6 1.9C12.78 2 12.97 2.06 13.18 2.06C13.75 2.07 14.21 2.41 14.38 2.92C14.43 3.09 14.45 3.26 14.44 3.44C14.39 3.92 14.67 4.42 15.1 4.64C15.6 4.89 15.84 5.31 15.82 5.87C15.81 6.05 15.75 6.22 15.66 6.38C15.53 6.6 15.46 6.83 15.47 7.09C15.48 7.34 15.56 7.57 15.71 7.77C15.84 7.96 15.95 8.15 15.98 8.38C16.05 8.89 15.88 9.3 15.47 9.6C15.06 9.89 14.85 10.28 14.89 10.78C14.9 10.89 14.93 11 14.93 11.11C14.97 11.68 14.64 12.18 14.1 12.37C14 12.41 13.9 12.42 13.8 12.44C13.3 12.55 12.96 12.85 12.83 13.35C12.69 13.83 12.39 14.16 11.91 14.29C11.67 14.36 11.43 14.34 11.2 14.27C10.68 14.13 10.24 14.26 9.88 14.65C9.67 14.89 9.43 15.05 9.12 15.11C8.74 15.18 8.39 15.09 8.09 14.84C7.9 14.67 7.69 14.53 7.44 14.48C7.16 14.42 6.89 14.45 6.64 14.56C5.96 14.85 5.24 14.57 4.95 13.89C4.79 13.5 4.51 13.23 4.1 13.11C3.97 13.07 3.85 13.07 3.72 13.06C3.16 13.04 2.65 12.58 2.57 12.02C2.55 11.92 2.55 11.81 2.56 11.71ZM4.44 8.2C4.44 8.41 4.51 8.55 4.63 8.68C5.24 9.28 5.85 9.89 6.45 10.5C6.72 10.76 7.05 10.76 7.32 10.5C8.58 9.23 9.85 7.96 11.12 6.69C11.54 6.28 11.95 5.86 12.37 5.45C12.66 5.15 12.6 4.69 12.24 4.5C12.01 4.38 11.74 4.43 11.54 4.63C10.25 5.91 8.97 7.2 7.68 8.49C7.47 8.7 7.25 8.91 7.04 9.12C6.93 9.24 6.84 9.24 6.73 9.12C6.69 9.08 6.65 9.04 6.6 9C6.22 8.61 5.83 8.23 5.45 7.84C5.26 7.66 5.04 7.6 4.8 7.7C4.57 7.8 4.45 7.98 4.44 8.2Z" fill="#1A87EE" fill-opacity="1.000000" fill-rule="nonzero"/>
	</g>
	<path id="Path 35" d="M4.44 8.2C4.45 7.98 4.57 7.8 4.8 7.7C5.04 7.6 5.26 7.66 5.45 7.84C5.83 8.23 6.22 8.61 6.6 9C6.64 9.04 6.69 9.08 6.73 9.12C6.84 9.24 6.93 9.24 7.04 9.12C7.25 8.91 7.47 8.7 7.68 8.49C8.97 7.2 10.25 5.91 11.54 4.63C11.74 4.43 12.01 4.38 12.24 4.5C12.6 4.69 12.66 5.15 12.37 5.45C11.95 5.86 11.54 6.28 11.12 6.69C9.85 7.96 8.58 9.23 7.32 10.5C7.05 10.76 6.72 10.76 6.45 10.5C5.85 9.89 5.24 9.28 4.63 8.68C4.51 8.55 4.44 8.41 4.44 8.2Z" fill="#FEFEFE" fill-opacity="1.000000" fill-rule="nonzero"/>
</svg>
