<svg width="16.571289" height="16.654480" viewBox="0 0 16.5713 16.6545" fill="none" xmlns="http://www.w3.org/2000/svg" xmlns:xlink="http://www.w3.org/1999/xlink">
	<desc>
			Created with Pixso.
	</desc>
	<defs/>
	<path id="Path 34390" d="M14.15 2.42C12.6 0.86 10.52 0 8.31 0C3.77 0 0.06 3.7 0.06 8.25C0.06 9.7 0.44 11.12 1.17 12.37L0 16.65L4.37 15.5C5.57 16.16 6.93 16.51 8.31 16.51C12.86 16.51 16.56 12.8 16.57 8.25C16.57 6.05 15.71 3.98 14.15 2.42ZM8.32 15.11C7.09 15.11 5.88 14.78 4.82 14.16L4.57 14.01L1.98 14.69L2.67 12.16L2.51 11.9C1.82 10.81 1.46 9.55 1.46 8.25C1.46 4.46 4.54 1.39 8.32 1.39C10.15 1.39 11.87 2.1 13.17 3.4C14.46 4.7 15.18 6.42 15.17 8.25C15.17 12.04 12.1 15.11 8.32 15.11ZM12.08 9.97C11.87 9.87 10.86 9.37 10.67 9.3C10.48 9.24 10.34 9.2 10.21 9.41C10.07 9.61 9.67 10.08 9.55 10.22C9.43 10.35 9.31 10.37 9.11 10.27C8.9 10.17 8.23 9.95 7.45 9.24C6.84 8.7 6.42 8.02 6.3 7.82C6.18 7.61 6.29 7.5 6.39 7.39C6.48 7.3 6.6 7.15 6.7 7.03C6.8 6.91 6.84 6.83 6.91 6.69C6.97 6.55 6.94 6.43 6.89 6.33C6.84 6.22 6.42 5.21 6.25 4.79C6.08 4.39 5.92 4.45 5.79 4.44C5.67 4.43 5.53 4.43 5.39 4.43C5.26 4.43 5.03 4.49 4.84 4.69C4.66 4.9 4.12 5.4 4.12 6.41C4.12 7.43 4.86 8.41 4.96 8.54C5.07 8.68 6.42 10.76 8.49 11.66C8.98 11.87 9.36 12 9.66 12.09C10.16 12.25 10.61 12.23 10.96 12.17C11.36 12.11 12.18 11.67 12.35 11.2C12.52 10.71 12.52 10.3 12.47 10.22C12.42 10.13 12.28 10.08 12.08 9.97Z" fill="#25D366" fill-opacity="1.000000" fill-rule="evenodd"/>
	<path id="Path 34390" d="M8.31 0C3.77 0 0.06 3.7 0.06 8.25C0.06 9.7 0.44 11.12 1.17 12.37L0 16.65L4.37 15.5C5.57 16.16 6.93 16.51 8.31 16.51C12.86 16.51 16.56 12.8 16.57 8.25C16.57 6.05 15.71 3.98 14.15 2.42C12.6 0.86 10.52 0 8.31 0ZM4.82 14.16L4.57 14.01L1.98 14.69L2.67 12.16L2.51 11.9C1.82 10.81 1.46 9.55 1.46 8.25C1.46 4.46 4.54 1.39 8.32 1.39C10.15 1.39 11.87 2.1 13.17 3.4C14.46 4.7 15.18 6.42 15.17 8.25C15.17 12.04 12.1 15.11 8.32 15.11C7.09 15.11 5.88 14.78 4.82 14.16ZM10.67 9.3C10.48 9.24 10.34 9.2 10.21 9.41C10.07 9.61 9.67 10.08 9.55 10.22C9.43 10.35 9.31 10.37 9.11 10.27C8.9 10.17 8.23 9.95 7.45 9.24C6.84 8.7 6.42 8.02 6.3 7.82C6.18 7.61 6.29 7.5 6.39 7.39C6.48 7.3 6.6 7.15 6.7 7.03C6.8 6.91 6.84 6.83 6.91 6.69C6.97 6.55 6.94 6.43 6.89 6.33C6.84 6.22 6.42 5.21 6.25 4.79C6.08 4.39 5.92 4.45 5.79 4.44C5.67 4.43 5.53 4.43 5.39 4.43C5.26 4.43 5.03 4.49 4.84 4.69C4.66 4.9 4.12 5.4 4.12 6.41C4.12 7.43 4.86 8.41 4.96 8.54C5.07 8.68 6.42 10.76 8.49 11.66C8.98 11.87 9.36 12 9.66 12.09C10.16 12.25 10.61 12.23 10.96 12.17C11.36 12.11 12.18 11.67 12.35 11.2C12.52 10.71 12.52 10.3 12.47 10.22C12.42 10.13 12.28 10.08 12.08 9.97C11.87 9.87 10.86 9.37 10.67 9.3Z" stroke="#707070" stroke-opacity="0" stroke-width="1.000000"/>
</svg>
