<?xml version="1.0" encoding="UTF-8"?>
<svg fill="none" viewBox="0 0 16.571 16.654" xmlns="http://www.w3.org/2000/svg">
<desc>Whatsapp Icon</desc>
<path id="a" d="m14.15 2.42c-1.55-1.56-3.63-2.42-5.84-2.42-4.54 0-8.25 3.7-8.25 8.25 0 1.45 0.38 2.87 1.11 4.12l-1.17 4.28 4.37-1.15c1.2 0.66 2.56 1.01 3.94 1.01 4.55 0 8.25-3.71 8.26-8.26 0-2.2-0.86-4.27-2.42-5.83zm-5.83 12.69c-1.23 0-2.44-0.33-3.5-0.95l-0.25-0.15-2.59 0.68 0.69-2.53-0.16-0.26c-0.69-1.09-1.05-2.35-1.05-3.65 0-3.79 3.08-6.86 6.86-6.86 1.83 0 3.55 0.71 4.85 2.01 1.29 1.3 2.01 3.02 2 4.85 0 3.79-3.07 6.86-6.85 6.86zm3.76-5.14c-0.21-0.1-1.22-0.6-1.41-0.67-0.19-0.06-0.33-0.1-0.46 0.11-0.14 0.2-0.54 0.67-0.66 0.81-0.12 0.13-0.24 0.15-0.44 0.05-0.21-0.1-0.88-0.32-1.66-1.03-0.61-0.54-1.03-1.22-1.15-1.42-0.12-0.21-0.01-0.32 0.09-0.43 0.09-0.09 0.21-0.24 0.31-0.36s0.14-0.2 0.21-0.34c0.06-0.14 0.03-0.26-0.02-0.36-0.05-0.11-0.47-1.12-0.64-1.54-0.17-0.4-0.33-0.34-0.46-0.35-0.12-0.01-0.26-0.01-0.4-0.01-0.13 0-0.36 0.06-0.55 0.26-0.18 0.21-0.72 0.71-0.72 1.72 0 1.02 0.74 2 0.84 2.13 0.11 0.14 1.46 2.22 3.53 3.12 0.49 0.21 0.87 0.34 1.17 0.43 0.5 0.16 0.95 0.14 1.3 0.08 0.4-0.06 1.22-0.5 1.39-0.97 0.17-0.49 0.17-0.9 0.12-0.98-0.05-0.09-0.19-0.14-0.39-0.25z" fill="#25D366" fill-rule="evenodd"/>
<path d="m8.31 0c-4.54 0-8.25 3.7-8.25 8.25 0 1.45 0.38 2.87 1.11 4.12l-1.17 4.28 4.37-1.15c1.2 0.66 2.56 1.01 3.94 1.01 4.55 0 8.25-3.71 8.26-8.26 0-2.2-0.86-4.27-2.42-5.83-1.55-1.56-3.63-2.42-5.84-2.42zm-3.49 14.16-0.25-0.15-2.59 0.68 0.69-2.53-0.16-0.26c-0.69-1.09-1.05-2.35-1.05-3.65 0-3.79 3.08-6.86 6.86-6.86 1.83 0 3.55 0.71 4.85 2.01 1.29 1.3 2.01 3.02 2 4.85 0 3.79-3.07 6.86-6.85 6.86-1.23 0-2.44-0.33-3.5-0.95zm5.85-4.86c-0.19-0.06-0.33-0.1-0.46 0.11-0.14 0.2-0.54 0.67-0.66 0.81-0.12 0.13-0.24 0.15-0.44 0.05-0.21-0.1-0.88-0.32-1.66-1.03-0.61-0.54-1.03-1.22-1.15-1.42-0.12-0.21-0.01-0.32 0.09-0.43 0.09-0.09 0.21-0.24 0.31-0.36s0.14-0.2 0.21-0.34c0.06-0.14 0.03-0.26-0.02-0.36-0.05-0.11-0.47-1.12-0.64-1.54-0.17-0.4-0.33-0.34-0.46-0.35-0.12-0.01-0.26-0.01-0.4-0.01-0.13 0-0.36 0.06-0.55 0.26-0.18 0.21-0.72 0.71-0.72 1.72 0 1.02 0.74 2 0.84 2.13 0.11 0.14 1.46 2.22 3.53 3.12 0.49 0.21 0.87 0.34 1.17 0.43 0.5 0.16 0.95 0.14 1.3 0.08 0.4-0.06 1.22-0.5 1.39-0.97 0.17-0.49 0.17-0.9 0.12-0.98-0.05-0.09-0.19-0.14-0.39-0.25-0.21-0.1-1.22-0.6-1.41-0.67z" stroke="#707070" stroke-opacity="0"/>
</svg>
